<?xml version="1.0" encoding="UTF-8"?>
<svg xmlns="http://www.w3.org/2000/svg" xmlns:xlink="http://www.w3.org/1999/xlink" width="0" height="0">
<defs>
<symbol viewBox="0 0 24 24" id="MaterialSymbols/handyman">
    <path fill="currentColor"
        d="M18.466 20.975q-.162 0-.299-.053t-.267-.183l-4.984-4.966q-.131-.13-.184-.267t-.053-.298t.053-.299q.053-.136.184-.267l1.663-1.663q.13-.131.267-.184t.298-.053t.298.053t.268.184l4.984 4.984q.131.131.184.268q.053.136.053.298t-.053.298t-.184.267l-1.663 1.644q-.131.131-.267.184q-.137.053-.298.053m0-1.048l1.398-1.398l-4.714-4.713l-1.398 1.397zM5.51 20.981q-.162 0-.301-.056q-.14-.056-.27-.187L3.28 19.1q-.131-.13-.187-.27t-.056-.301q0-.162.056-.308t.187-.277l5.146-5.146h2.087l.773-.773l-4.24-4.24H5.62L3.096 5.26L5.23 3.127l2.525 2.525v1.425l4.24 4.24l3.016-3.015l-1.844-1.844l1.13-1.131H12.03l-.412-.392l2.839-2.839l.392.392v2.287l1.13-1.13l3.974 3.934q.367.348.544.799q.177.45.177.955q0 .369-.11.717t-.322.658l-2.05-2.048l-1.419 1.419l-1.07-1.07l-4.501 4.503v2.119l-5.127 5.108q-.13.13-.267.186t-.298.056m0-1.073l4.923-4.924v-1.397H9.035l-4.923 4.922zm0 0l-1.398-1.399l.701.697zm12.956.019l1.398-1.398z" ></path>
</symbol>
<symbol viewBox="0 0 24 24" id="MaterialSymbols/download">
    <path fill="currentColor"
        d="m12 16l-5-5l1.4-1.45l2.6 2.6V4h2v8.15l2.6-2.6L17 11zm-6 4q-.825 0-1.412-.587T4 18v-3h2v3h12v-3h2v3q0 .825-.587 1.413T18 20z" ></path>
</symbol>
<symbol viewBox="0 0 24 24" fill="none" stroke="currentColor" stroke-width="2" stroke-linecap="round" stroke-linejoin="round" id="Lucide/x">
  <path d="M18 6 6 18" ></path>
  <path d="m6 6 12 12" ></path>
</symbol>
<symbol viewBox="0 0 24 24" fill="none" stroke="currentColor" stroke-width="2" stroke-linecap="round" stroke-linejoin="round" id="Lucide/usersRound">
  <path d="M18 21a8 8 0 0 0-16 0" ></path>
  <circle cx="10" cy="8" r="5" ></circle>
  <path d="M22 20c0-3.37-2-6.5-4-8a5 5 0 0 0-.45-8.3" ></path>
</symbol>
<symbol viewBox="0 0 24 24" fill="none" stroke="currentColor" stroke-width="2" stroke-linecap="round" stroke-linejoin="round" id="Lucide/user">
  <path d="M19 21v-2a4 4 0 0 0-4-4H9a4 4 0 0 0-4 4v2" ></path>
  <circle cx="12" cy="7" r="4" ></circle>
</symbol>
<symbol viewBox="0 0 24 24" fill="none" stroke="currentColor" stroke-width="2" stroke-linecap="round" stroke-linejoin="round" id="Lucide/trash">
  <path d="M3 6h18" ></path>
  <path d="M19 6v14c0 1-1 2-2 2H7c-1 0-2-1-2-2V6" ></path>
  <path d="M8 6V4c0-1 1-2 2-2h4c1 0 2 1 2 2v2" ></path>
</symbol>
<symbol viewBox="0 0 24 24" fill="none" stroke="currentColor" stroke-width="2" stroke-linecap="round" stroke-linejoin="round" id="Lucide/trash2">
  <path d="M3 6h18" ></path>
  <path d="M19 6v14c0 1-1 2-2 2H7c-1 0-2-1-2-2V6" ></path>
  <path d="M8 6V4c0-1 1-2 2-2h4c1 0 2 1 2 2v2" ></path>
  <line x1="10" x2="10" y1="11" y2="17" ></line>
  <line x1="14" x2="14" y1="11" y2="17" ></line>
</symbol>
<symbol viewBox="0 0 24 24" fill="none" stroke="currentColor" stroke-width="2" stroke-linecap="round" stroke-linejoin="round" id="Lucide/timerReset">
  <path d="M10 2h4" ></path>
  <path d="M12 14v-4" ></path>
  <path d="M4 13a8 8 0 0 1 8-7 8 8 0 1 1-5.3 14L4 17.6" ></path>
  <path d="M9 17H4v5" ></path>
</symbol>
<symbol viewBox="0 0 24 24" fill="none" stroke="currentColor" stroke-width="2" stroke-linecap="round" stroke-linejoin="round" id="Lucide/shoppingCart">
  <circle cx="8" cy="21" r="1" ></circle>
  <circle cx="19" cy="21" r="1" ></circle>
  <path d="M2.05 2.05h2l2.66 12.42a2 2 0 0 0 2 1.58h9.78a2 2 0 0 0 1.95-1.57l1.65-7.43H5.12" ></path>
</symbol>
<symbol viewBox="0 0 24 24" fill="none" stroke="currentColor" stroke-width="2" stroke-linecap="round" stroke-linejoin="round" id="Lucide/search">
  <circle cx="11" cy="11" r="8" ></circle>
  <path d="m21 21-4.3-4.3" ></path>
</symbol>
<symbol viewBox="0 0 24 24" fill="none" stroke="currentColor" stroke-width="2" stroke-linecap="round" stroke-linejoin="round" id="Lucide/personStanding">
  <circle cx="12" cy="5" r="1" ></circle>
  <path d="m9 20 3-6 3 6" ></path>
  <path d="m6 8 6 2 6-2" ></path>
  <path d="M12 10v4" ></path>
</symbol>
<symbol viewBox="0 0 24 24" fill="none" stroke="currentColor" stroke-width="2" stroke-linecap="round" stroke-linejoin="round" id="Lucide/menu">
  <line x1="4" x2="20" y1="12" y2="12" ></line>
  <line x1="4" x2="20" y1="6" y2="6" ></line>
  <line x1="4" x2="20" y1="18" y2="18" ></line>
</symbol>
<symbol viewBox="0 0 24 24" fill="none" stroke="currentColor" stroke-width="2" stroke-linecap="round" stroke-linejoin="round" id="Lucide/history">
  <path d="M3 12a9 9 0 1 0 9-9 9.75 9.75 0 0 0-6.74 2.74L3 8" ></path>
  <path d="M3 3v5h5" ></path>
  <path d="M12 7v5l4 2" ></path>
</symbol>
<symbol viewBox="0 0 24 24" fill="none" stroke="currentColor" stroke-width="2" stroke-linecap="round" stroke-linejoin="round" id="Lucide/folderArchive">
  <circle cx="15" cy="19" r="2" ></circle>
  <path d="M20.9 19.8A2 2 0 0 0 22 18V8a2 2 0 0 0-2-2h-7.9a2 2 0 0 1-1.69-.9L9.6 3.9A2 2 0 0 0 7.93 3H4a2 2 0 0 0-2 2v13a2 2 0 0 0 2 2h5.1" ></path>
  <path d="M15 11v-1" ></path>
  <path d="M15 17v-2" ></path>
</symbol>
<symbol viewBox="0 0 24 24" fill="none" stroke="currentColor" stroke-width="2" stroke-linecap="round" stroke-linejoin="round" id="Lucide/fileArchive">
  <path d="M10 12v-1" ></path>
  <path d="M10 18v-2" ></path>
  <path d="M10 7V6" ></path>
  <path d="M14 2v4a2 2 0 0 0 2 2h4" ></path>
  <path d="M15.5 22H18a2 2 0 0 0 2-2V7l-5-5H6a2 2 0 0 0-2 2v16a2 2 0 0 0 .274 1.01" ></path>
  <circle cx="10" cy="20" r="2" ></circle>
</symbol>
<symbol viewBox="0 0 24 24" fill="none" stroke="currentColor" stroke-width="2" stroke-linecap="round" stroke-linejoin="round" id="Lucide/download">
  <path d="M21 15v4a2 2 0 0 1-2 2H5a2 2 0 0 1-2-2v-4" ></path>
  <polyline points="7 10 12 15 17 10" ></polyline>
  <line x1="12" x2="12" y1="15" y2="3" ></line>
</symbol>
<symbol viewBox="0 0 24 24" fill="none" stroke="currentColor" stroke-width="2" stroke-linecap="round" stroke-linejoin="round" id="Lucide/chevronsDown">
  <path d="m7 6 5 5 5-5" ></path>
  <path d="m7 13 5 5 5-5" ></path>
</symbol>
<symbol viewBox="0 0 24 24" fill="none" stroke="currentColor" stroke-width="2" stroke-linecap="round" stroke-linejoin="round" id="Lucide/check">
  <path d="M20 6 9 17l-5-5" ></path>
</symbol>
<symbol viewBox="0 0 24 24" fill="none" stroke="currentColor" stroke-width="2" stroke-linecap="round" stroke-linejoin="round" id="Lucide/bellRing">
  <path d="M6 8a6 6 0 0 1 12 0c0 7 3 9 3 9H3s3-2 3-9" ></path>
  <path d="M10.3 21a1.94 1.94 0 0 0 3.4 0" ></path>
  <path d="M4 2C2.8 3.7 2 5.7 2 8" ></path>
  <path d="M22 8c0-2.3-.8-4.3-2-6" ></path>
</symbol>
<symbol viewBox="0 0 24 24" fill="none" stroke="currentColor" stroke-width="2" stroke-linecap="round" stroke-linejoin="round" id="Lucide/archive">
  <rect width="20" height="5" x="2" y="3" rx="1" ></rect>
  <path d="M4 8v11a2 2 0 0 0 2 2h12a2 2 0 0 0 2-2V8" ></path>
  <path d="M10 12h4" ></path>
</symbol>
<symbol viewBox="0 0 24 24" fill="none" stroke="currentColor" stroke-width="2" stroke-linecap="round" stroke-linejoin="round" id="Lucide/archiveX">
  <rect width="20" height="5" x="2" y="3" rx="1" ></rect>
  <path d="M4 8v11a2 2 0 0 0 2 2h12a2 2 0 0 0 2-2V8" ></path>
  <path d="m9.5 17 5-5" ></path>
  <path d="m9.5 12 5 5" ></path>
</symbol>
<symbol viewBox="0 0 24 24" fill="none" stroke="currentColor" stroke-width="2" stroke-linecap="round" stroke-linejoin="round" id="Lucide/archiveRestore">
  <rect width="20" height="5" x="2" y="3" rx="1" ></rect>
  <path d="M4 8v11a2 2 0 0 0 2 2h2" ></path>
  <path d="M20 8v11a2 2 0 0 1-2 2h-2" ></path>
  <path d="m9 15 3-3 3 3" ></path>
  <path d="M12 12v9" ></path>
</symbol>
<symbol viewBox="0 0 24 24" id="GoogleMaterial/trash">
    <path fill="currentColor"
        d="M6 19c0 1.1.9 2 2 2h8c1.1 0 2-.9 2-2V7H6zM19 4h-3.5l-1-1h-5l-1 1H5v2h14z" ></path>
</symbol>
<symbol viewBox="0 0 24 24" id="GoogleMaterial/person">
    <path fill="currentColor"
        d="M12 12c2.21 0 4-1.79 4-4s-1.79-4-4-4s-4 1.79-4 4s1.79 4 4 4m0 2c-2.67 0-8 1.34-8 4v2h16v-2c0-2.66-5.33-4-8-4" ></path>
</symbol>
<symbol viewBox="0 0 24 24" id="GoogleMaterial/history">
    <path fill="currentColor"
        d="M13 3a9 9 0 0 0-9 9H1l3.89 3.89l.07.14L9 12H6c0-3.87 3.13-7 7-7s7 3.13 7 7s-3.13 7-7 7c-1.93 0-3.68-.79-4.94-2.06l-1.42 1.42A8.95 8.95 0 0 0 13 21a9 9 0 0 0 0-18m-1 5v5l4.28 2.54l.72-1.21l-3.5-2.08V8z" ></path>
</symbol>
<symbol viewBox="0 0 24 24" id="GoogleMaterial/handyman">
    <path fill="currentColor"
        d="m21.67 18.17l-5.3-5.3h-.99l-2.54 2.54v.99l5.3 5.3c.39.39 1.02.39 1.41 0l2.12-2.12a.996.996 0 0 0 0-1.41" ></path>
    <path fill="currentColor"
        d="m17.34 10.19l1.41-1.41l2.12 2.12a3 3 0 0 0 0-4.24l-3.54-3.54l-1.41 1.41V1.71l-.7-.71l-3.54 3.54l.71.71h2.83l-1.41 1.41l1.06 1.06l-2.89 2.89l-4.13-4.13V5.06L4.83 2.04L2 4.87L5.03 7.9h1.41l4.13 4.13l-.85.85H7.6l-5.3 5.3a.996.996 0 0 0 0 1.41l2.12 2.12c.39.39 1.02.39 1.41 0l5.3-5.3v-2.12l5.15-5.15z" ></path>
</symbol>
<symbol viewBox="0 0 24 24" id="GoogleMaterial/download">
    <path fill="currentColor"
        d="M18 15v3H6v-3H4v3c0 1.1.9 2 2 2h12c1.1 0 2-.9 2-2v-3zm-1-4l-1.41-1.41L13 12.17V4h-2v8.17L8.41 9.59L7 11l5 5z" ></path>
</symbol>
<symbol viewBox="0 0 24 24" id="GoogleMaterial/archive">
    <path fill="currentColor"
        d="m20.54 5.23l-1.39-1.68C18.88 3.21 18.47 3 18 3H6c-.47 0-.88.21-1.16.55L3.46 5.23C3.17 5.57 3 6.02 3 6.5V19c0 1.1.9 2 2 2h14c1.1 0 2-.9 2-2V6.5c0-.48-.17-.93-.46-1.27M6.24 5h11.52l.81.97H5.44zM5 19V8h14v11zm8.45-9h-2.9v3H8l4 4l4-4h-2.55z" ></path>
</symbol>
</defs>
</svg>