<?xml version="1.0" encoding="UTF-8"?>
<svg xmlns="http://www.w3.org/2000/svg" xmlns:xlink="http://www.w3.org/1999/xlink" width="0" height="0">
<defs>
<symbol viewBox="0 0 24 24" id="MaterialSymbols/handyman">
    <path fill="currentColor"
        d="M18.466 20.975q-.162 0-.299-.053t-.267-.183l-4.984-4.966q-.131-.13-.184-.267t-.053-.298t.053-.299q.053-.136.184-.267l1.663-1.663q.13-.131.267-.184t.298-.053t.298.053t.268.184l4.984 4.984q.131.131.184.268q.053.136.053.298t-.053.298t-.184.267l-1.663 1.644q-.131.131-.267.184q-.137.053-.298.053m0-1.048l1.398-1.398l-4.714-4.713l-1.398 1.397zM5.51 20.981q-.162 0-.301-.056q-.14-.056-.27-.187L3.28 19.1q-.131-.13-.187-.27t-.056-.301q0-.162.056-.308t.187-.277l5.146-5.146h2.087l.773-.773l-4.24-4.24H5.62L3.096 5.26L5.23 3.127l2.525 2.525v1.425l4.24 4.24l3.016-3.015l-1.844-1.844l1.13-1.131H12.03l-.412-.392l2.839-2.839l.392.392v2.287l1.13-1.13l3.974 3.934q.367.348.544.799q.177.45.177.955q0 .369-.11.717t-.322.658l-2.05-2.048l-1.419 1.419l-1.07-1.07l-4.501 4.503v2.119l-5.127 5.108q-.13.13-.267.186t-.298.056m0-1.073l4.923-4.924v-1.397H9.035l-4.923 4.922zm0 0l-1.398-1.399l.701.697zm12.956.019l1.398-1.398z" ></path>
</symbol>
<symbol viewBox="0 0 24 24" id="MaterialSymbols/download">
    <path fill="currentColor"
        d="m12 16l-5-5l1.4-1.45l2.6 2.6V4h2v8.15l2.6-2.6L17 11zm-6 4q-.825 0-1.412-.587T4 18v-3h2v3h12v-3h2v3q0 .825-.587 1.413T18 20z" ></path>
</symbol>
<symbol viewBox="0 0 24 24" fill="none" stroke="currentColor" stroke-width="2" stroke-linecap="round" stroke-linejoin="round" id="Lucide/x">
  <path d="M18 6 6 18" ></path>
  <path d="m6 6 12 12" ></path>
</symbol>
<symbol viewBox="0 0 24 24" fill="none" stroke="currentColor" stroke-width="2" stroke-linecap="round" stroke-linejoin="round" id="Lucide/usersRound">
  <path d="M18 21a8 8 0 0 0-16 0" ></path>
  <circle cx="10" cy="8" r="5" ></circle>
  <path d="M22 20c0-3.37-2-6.5-4-8a5 5 0 0 0-.45-8.3" ></path>
</symbol>
<symbol viewBox="0 0 24 24" fill="none" stroke="currentColor" stroke-width="2" stroke-linecap="round" stroke-linejoin="round" id="Lucide/user">
  <path d="M19 21v-2a4 4 0 0 0-4-4H9a4 4 0 0 0-4 4v2" ></path>
  <circle cx="12" cy="7" r="4" ></circle>
</symbol>
<symbol viewBox="0 0 24 24" fill="none" stroke="currentColor" stroke-width="2" stroke-linecap="round" stroke-linejoin="round" id="Lucide/trash">
  <path d="M3 6h18" ></path>
  <path d="M19 6v14c0 1-1 2-2 2H7c-1 0-2-1-2-2V6" ></path>
  <path d="M8 6V4c0-1 1-2 2-2h4c1 0 2 1 2 2v2" ></path>
</symbol>
<symbol viewBox="0 0 24 24" fill="none" stroke="currentColor" stroke-width="2" stroke-linecap="round" stroke-linejoin="round" id="Lucide/trash2">
  <path d="M3 6h18" ></path>
  <path d="M19 6v14c0 1-1 2-2 2H7c-1 0-2-1-2-2V6" ></path>
  <path d="M8 6V4c0-1 1-2 2-2h4c1 0 2 1 2 2v2" ></path>
  <line x1="10" x2="10" y1="11" y2="17" ></line>
  <line x1="14" x2="14" y1="11" y2="17" ></line>
</symbol>
<symbol viewBox="0 0 24 24" fill="none" stroke="currentColor" stroke-width="2" stroke-linecap="round" stroke-linejoin="round" id="Lucide/timerReset">
  <path d="M10 2h4" ></path>
  <path d="M12 14v-4" ></path>
  <path d="M4 13a8 8 0 0 1 8-7 8 8 0 1 1-5.3 14L4 17.6" ></path>
  <path d="M9 17H4v5" ></path>
</symbol>
<symbol viewBox="0 0 24 24" fill="none" stroke="currentColor" stroke-width="2" stroke-linecap="round" stroke-linejoin="round" id="Lucide/stickyNote">
  <path d="M16 3H5a2 2 0 0 0-2 2v14a2 2 0 0 0 2 2h14a2 2 0 0 0 2-2V8Z" ></path>
  <path d="M15 3v4a2 2 0 0 0 2 2h4" ></path>
</symbol>
<symbol viewBox="0 0 24 24" fill="none" stroke="currentColor" stroke-width="2" stroke-linecap="round" stroke-linejoin="round" id="Lucide/squarePen">
  <path d="M12 3H5a2 2 0 0 0-2 2v14a2 2 0 0 0 2 2h14a2 2 0 0 0 2-2v-7" ></path>
  <path d="M18.375 2.625a1 1 0 0 1 3 3l-9.013 9.014a2 2 0 0 1-.853.505l-2.873.84a.5.5 0 0 1-.62-.62l.84-2.873a2 2 0 0 1 .506-.852z" ></path>
</symbol>
<symbol viewBox="0 0 24 24" fill="none" stroke="currentColor" stroke-width="2" stroke-linecap="round" stroke-linejoin="round" id="Lucide/shoppingCart">
  <circle cx="8" cy="21" r="1" ></circle>
  <circle cx="19" cy="21" r="1" ></circle>
  <path d="M2.05 2.05h2l2.66 12.42a2 2 0 0 0 2 1.58h9.78a2 2 0 0 0 1.95-1.57l1.65-7.43H5.12" ></path>
</symbol>
<symbol viewBox="0 0 24 24" fill="none" stroke="currentColor" stroke-width="2" stroke-linecap="round" stroke-linejoin="round" id="Lucide/search">
  <circle cx="11" cy="11" r="8" ></circle>
  <path d="m21 21-4.3-4.3" ></path>
</symbol>
<symbol viewBox="0 0 24 24" fill="none" stroke="currentColor" stroke-width="2" stroke-linecap="round" stroke-linejoin="round" id="Lucide/refreshCcw">
  <path d="M21 12a9 9 0 0 0-9-9 9.75 9.75 0 0 0-6.74 2.74L3 8" ></path>
  <path d="M3 3v5h5" ></path>
  <path d="M3 12a9 9 0 0 0 9 9 9.75 9.75 0 0 0 6.74-2.74L21 16" ></path>
  <path d="M16 16h5v5" ></path>
</symbol>
<symbol viewBox="0 0 24 24" fill="none" stroke="currentColor" stroke-width="2" stroke-linecap="round" stroke-linejoin="round" id="Lucide/plus">
  <path d="M5 12h14" ></path>
  <path d="M12 5v14" ></path>
</symbol>
<symbol viewBox="0 0 24 24" fill="none" stroke="currentColor" stroke-width="2" stroke-linecap="round" stroke-linejoin="round" id="Lucide/phone">
  <path d="M22 16.92v3a2 2 0 0 1-2.18 2 19.79 19.79 0 0 1-8.63-3.07 19.5 19.5 0 0 1-6-6 19.79 19.79 0 0 1-3.07-8.67A2 2 0 0 1 4.11 2h3a2 2 0 0 1 2 1.72 12.84 12.84 0 0 0 .7 2.81 2 2 0 0 1-.45 2.11L8.09 9.91a16 16 0 0 0 6 6l1.27-1.27a2 2 0 0 1 2.11-.45 12.84 12.84 0 0 0 2.81.7A2 2 0 0 1 22 16.92z" ></path>
</symbol>
<symbol viewBox="0 0 24 24" fill="none" stroke="currentColor" stroke-width="2" stroke-linecap="round" stroke-linejoin="round" id="Lucide/personStanding">
  <circle cx="12" cy="5" r="1" ></circle>
  <path d="m9 20 3-6 3 6" ></path>
  <path d="m6 8 6 2 6-2" ></path>
  <path d="M12 10v4" ></path>
</symbol>
<symbol viewBox="0 0 24 24" fill="none" stroke="currentColor" stroke-width="2" stroke-linecap="round" stroke-linejoin="round" id="Lucide/menu">
  <line x1="4" x2="20" y1="12" y2="12" ></line>
  <line x1="4" x2="20" y1="6" y2="6" ></line>
  <line x1="4" x2="20" y1="18" y2="18" ></line>
</symbol>
<symbol viewBox="0 0 24 24" fill="none" stroke="currentColor" stroke-width="2" stroke-linecap="round" stroke-linejoin="round" id="Lucide/mapPin">
  <path d="M20 10c0 4.993-5.539 10.193-7.399 11.799a1 1 0 0 1-1.202 0C9.539 20.193 4 14.993 4 10a8 8 0 0 1 16 0" ></path>
  <circle cx="12" cy="10" r="3" ></circle>
</symbol>
<symbol viewBox="0 0 24 24" fill="none" stroke="currentColor" stroke-width="2" stroke-linecap="round" stroke-linejoin="round" id="Lucide/mail">
  <rect width="20" height="16" x="2" y="4" rx="2" ></rect>
  <path d="m22 7-8.97 5.7a1.94 1.94 0 0 1-2.06 0L2 7" ></path>
</symbol>
<symbol viewBox="0 0 24 24" fill="none" stroke="currentColor" stroke-width="2" stroke-linecap="round" stroke-linejoin="round" id="Lucide/history">
  <path d="M3 12a9 9 0 1 0 9-9 9.75 9.75 0 0 0-6.74 2.74L3 8" ></path>
  <path d="M3 3v5h5" ></path>
  <path d="M12 7v5l4 2" ></path>
</symbol>
<symbol viewBox="0 0 24 24" fill="none" stroke="currentColor" stroke-width="2" stroke-linecap="round" stroke-linejoin="round" id="Lucide/github">
  <path d="M15 22v-4a4.8 4.8 0 0 0-1-3.5c3 0 6-2 6-5.5.08-1.25-.27-2.48-1-3.5.28-1.15.28-2.35 0-3.5 0 0-1 0-3 1.5-2.64-.5-5.36-.5-8 0C6 2 5 2 5 2c-.3 1.15-.3 2.35 0 3.5A5.403 5.403 0 0 0 4 9c0 3.5 3 5.5 6 5.5-.39.49-.68 1.05-.85 1.65-.17.6-.22 1.23-.15 1.85v4" ></path>
  <path d="M9 18c-4.51 2-5-2-7-2" ></path>
</symbol>
<symbol viewBox="0 0 24 24" fill="none" stroke="currentColor" stroke-width="2" stroke-linecap="round" stroke-linejoin="round" id="Lucide/folderArchive">
  <circle cx="15" cy="19" r="2" ></circle>
  <path d="M20.9 19.8A2 2 0 0 0 22 18V8a2 2 0 0 0-2-2h-7.9a2 2 0 0 1-1.69-.9L9.6 3.9A2 2 0 0 0 7.93 3H4a2 2 0 0 0-2 2v13a2 2 0 0 0 2 2h5.1" ></path>
  <path d="M15 11v-1" ></path>
  <path d="M15 17v-2" ></path>
</symbol>
<symbol viewBox="0 0 24 24" fill="none" stroke="currentColor" stroke-width="2" stroke-linecap="round" stroke-linejoin="round" id="Lucide/fileArchive">
  <path d="M10 12v-1" ></path>
  <path d="M10 18v-2" ></path>
  <path d="M10 7V6" ></path>
  <path d="M14 2v4a2 2 0 0 0 2 2h4" ></path>
  <path d="M15.5 22H18a2 2 0 0 0 2-2V7l-5-5H6a2 2 0 0 0-2 2v16a2 2 0 0 0 .274 1.01" ></path>
  <circle cx="10" cy="20" r="2" ></circle>
</symbol>
<symbol viewBox="0 0 24 24" fill="none" stroke="currentColor" stroke-width="2" stroke-linecap="round" stroke-linejoin="round" id="Lucide/download">
  <path d="M21 15v4a2 2 0 0 1-2 2H5a2 2 0 0 1-2-2v-4" ></path>
  <polyline points="7 10 12 15 17 10" ></polyline>
  <line x1="12" x2="12" y1="15" y2="3" ></line>
</symbol>
<symbol viewBox="0 0 24 24" fill="none" stroke="currentColor" stroke-width="2" stroke-linecap="round" stroke-linejoin="round" id="Lucide/circlePlus">
  <circle cx="12" cy="12" r="10" ></circle>
  <path d="M8 12h8" ></path>
  <path d="M12 8v8" ></path>
</symbol>
<symbol viewBox="0 0 24 24" fill="none" stroke="currentColor" stroke-width="2" stroke-linecap="round" stroke-linejoin="round" id="Lucide/circleCheck">
  <circle cx="12" cy="12" r="10" ></circle>
  <path d="m9 12 2 2 4-4" ></path>
</symbol>
<symbol viewBox="0 0 24 24" fill="none" stroke="currentColor" stroke-width="2" stroke-linecap="round" stroke-linejoin="round" id="Lucide/chevronsDown">
  <path d="m7 6 5 5 5-5" ></path>
  <path d="m7 13 5 5 5-5" ></path>
</symbol>
<symbol viewBox="0 0 24 24" fill="none" stroke="currentColor" stroke-width="2" stroke-linecap="round" stroke-linejoin="round" id="Lucide/check">
  <path d="M20 6 9 17l-5-5" ></path>
</symbol>
<symbol viewBox="0 0 24 24" fill="none" stroke="currentColor" stroke-width="2" stroke-linecap="round" stroke-linejoin="round" id="Lucide/building2">
  <path d="M6 22V4a2 2 0 0 1 2-2h8a2 2 0 0 1 2 2v18Z" ></path>
  <path d="M6 12H4a2 2 0 0 0-2 2v6a2 2 0 0 0 2 2h2" ></path>
  <path d="M18 9h2a2 2 0 0 1 2 2v9a2 2 0 0 1-2 2h-2" ></path>
  <path d="M10 6h4" ></path>
  <path d="M10 10h4" ></path>
  <path d="M10 14h4" ></path>
  <path d="M10 18h4" ></path>
</symbol>
<symbol viewBox="0 0 24 24" fill="none" stroke="currentColor" stroke-width="2" stroke-linecap="round" stroke-linejoin="round" id="Lucide/bellRing">
  <path d="M6 8a6 6 0 0 1 12 0c0 7 3 9 3 9H3s3-2 3-9" ></path>
  <path d="M10.3 21a1.94 1.94 0 0 0 3.4 0" ></path>
  <path d="M4 2C2.8 3.7 2 5.7 2 8" ></path>
  <path d="M22 8c0-2.3-.8-4.3-2-6" ></path>
</symbol>
<symbol viewBox="0 0 24 24" fill="none" stroke="currentColor" stroke-width="2" stroke-linecap="round" stroke-linejoin="round" id="Lucide/archive">
  <rect width="20" height="5" x="2" y="3" rx="1" ></rect>
  <path d="M4 8v11a2 2 0 0 0 2 2h12a2 2 0 0 0 2-2V8" ></path>
  <path d="M10 12h4" ></path>
</symbol>
<symbol viewBox="0 0 24 24" fill="none" stroke="currentColor" stroke-width="2" stroke-linecap="round" stroke-linejoin="round" id="Lucide/archiveX">
  <rect width="20" height="5" x="2" y="3" rx="1" ></rect>
  <path d="M4 8v11a2 2 0 0 0 2 2h12a2 2 0 0 0 2-2V8" ></path>
  <path d="m9.5 17 5-5" ></path>
  <path d="m9.5 12 5 5" ></path>
</symbol>
<symbol viewBox="0 0 24 24" fill="none" stroke="currentColor" stroke-width="2" stroke-linecap="round" stroke-linejoin="round" id="Lucide/archiveRestore">
  <rect width="20" height="5" x="2" y="3" rx="1" ></rect>
  <path d="M4 8v11a2 2 0 0 0 2 2h2" ></path>
  <path d="M20 8v11a2 2 0 0 1-2 2h-2" ></path>
  <path d="m9 15 3-3 3 3" ></path>
  <path d="M12 12v9" ></path>
</symbol>
<symbol viewBox="0 0 24 24" id="GoogleMaterial/trash">
    <path fill="currentColor"
        d="M6 19c0 1.1.9 2 2 2h8c1.1 0 2-.9 2-2V7H6zM19 4h-3.5l-1-1h-5l-1 1H5v2h14z" ></path>
</symbol>
<symbol viewBox="0 0 24 24" id="GoogleMaterial/person">
    <path fill="currentColor"
        d="M12 12c2.21 0 4-1.79 4-4s-1.79-4-4-4s-4 1.79-4 4s1.79 4 4 4m0 2c-2.67 0-8 1.34-8 4v2h16v-2c0-2.66-5.33-4-8-4" ></path>
</symbol>
<symbol viewBox="0 0 24 24" id="GoogleMaterial/history">
    <path fill="currentColor"
        d="M13 3a9 9 0 0 0-9 9H1l3.89 3.89l.07.14L9 12H6c0-3.87 3.13-7 7-7s7 3.13 7 7s-3.13 7-7 7c-1.93 0-3.68-.79-4.94-2.06l-1.42 1.42A8.95 8.95 0 0 0 13 21a9 9 0 0 0 0-18m-1 5v5l4.28 2.54l.72-1.21l-3.5-2.08V8z" ></path>
</symbol>
<symbol viewBox="0 0 24 24" id="GoogleMaterial/handyman">
    <path fill="currentColor"
        d="m21.67 18.17l-5.3-5.3h-.99l-2.54 2.54v.99l5.3 5.3c.39.39 1.02.39 1.41 0l2.12-2.12a.996.996 0 0 0 0-1.41" ></path>
    <path fill="currentColor"
        d="m17.34 10.19l1.41-1.41l2.12 2.12a3 3 0 0 0 0-4.24l-3.54-3.54l-1.41 1.41V1.71l-.7-.71l-3.54 3.54l.71.71h2.83l-1.41 1.41l1.06 1.06l-2.89 2.89l-4.13-4.13V5.06L4.83 2.04L2 4.87L5.03 7.9h1.41l4.13 4.13l-.85.85H7.6l-5.3 5.3a.996.996 0 0 0 0 1.41l2.12 2.12c.39.39 1.02.39 1.41 0l5.3-5.3v-2.12l5.15-5.15z" ></path>
</symbol>
<symbol viewBox="0 0 128 128" id="GoogleMaterial/google">
    <path fill="#fff"
        d="M44.59 4.21a63.28 63.28 0 0 0 4.33 120.9a67.6 67.6 0 0 0 32.36.35a57.13 57.13 0 0 0 25.9-13.46a57.44 57.44 0 0 0 16-26.26a74.3 74.3 0 0 0 1.61-33.58H65.27v24.69h34.47a29.72 29.72 0 0 1-12.66 19.52a36.2 36.2 0 0 1-13.93 5.5a41.3 41.3 0 0 1-15.1 0A37.2 37.2 0 0 1 44 95.74a39.3 39.3 0 0 1-14.5-19.42a38.3 38.3 0 0 1 0-24.63a39.25 39.25 0 0 1 9.18-14.91A37.17 37.17 0 0 1 76.13 27a34.3 34.3 0 0 1 13.64 8q5.83-5.8 11.64-11.63c2-2.09 4.18-4.08 6.15-6.22A61.2 61.2 0 0 0 87.2 4.59a64 64 0 0 0-42.61-.38" ></path>
    <path fill="#e33629"
        d="M44.59 4.21a64 64 0 0 1 42.61.37a61.2 61.2 0 0 1 20.35 12.62c-2 2.14-4.11 4.14-6.15 6.22Q95.58 29.23 89.77 35a34.3 34.3 0 0 0-13.64-8a37.17 37.17 0 0 0-37.46 9.74a39.25 39.25 0 0 0-9.18 14.91L8.76 35.6A63.53 63.53 0 0 1 44.59 4.21" ></path>
    <path fill="#f8bd00"
        d="M3.26 51.5a63 63 0 0 1 5.5-15.9l20.73 16.09a38.3 38.3 0 0 0 0 24.63q-10.36 8-20.73 16.08a63.33 63.33 0 0 1-5.5-40.9" ></path>
    <path fill="#587dbd"
        d="M65.27 52.15h59.52a74.3 74.3 0 0 1-1.61 33.58a57.44 57.44 0 0 1-16 26.26c-6.69-5.22-13.41-10.4-20.1-15.62a29.72 29.72 0 0 0 12.66-19.54H65.27c-.01-8.22 0-16.45 0-24.68" ></path>
    <path fill="#319f43"
        d="M8.75 92.4q10.37-8 20.73-16.08A39.3 39.3 0 0 0 44 95.74a37.2 37.2 0 0 0 14.08 6.08a41.3 41.3 0 0 0 15.1 0a36.2 36.2 0 0 0 13.93-5.5c6.69 5.22 13.41 10.4 20.1 15.62a57.13 57.13 0 0 1-25.9 13.47a67.6 67.6 0 0 1-32.36-.35a63 63 0 0 1-23-11.59A63.7 63.7 0 0 1 8.75 92.4" ></path>
</symbol>
<symbol viewBox="0 0 24 24" id="GoogleMaterial/elipsis">
    <g fill="none" stroke="currentColor" stroke-linecap="round" stroke-linejoin="round"
        stroke-width="2">
        <circle cx="12" cy="12" r="1" ></circle>
        <circle cx="19" cy="12" r="1" ></circle>
        <circle cx="5" cy="12" r="1" ></circle>
    </g>
</symbol>
<symbol viewBox="0 0 24 24" id="GoogleMaterial/download">
    <path fill="currentColor"
        d="M18 15v3H6v-3H4v3c0 1.1.9 2 2 2h12c1.1 0 2-.9 2-2v-3zm-1-4l-1.41-1.41L13 12.17V4h-2v8.17L8.41 9.59L7 11l5 5z" ></path>
</symbol>
<symbol viewBox="0 0 24 24" id="GoogleMaterial/birthday">
    <g fill="none" stroke="currentColor" stroke-linecap="round" stroke-linejoin="round"
        stroke-width="1.5">
        <path             d="M4 16.5V20a2 2 0 0 0 2 2h12a2 2 0 0 0 2-2v-3.5M3 14v-1a2 2 0 0 1 2-2h14a2 2 0 0 1 2 2v1m-9-6v3m0-3c1.262 0 2-.968 2-2.625S12 2 12 2s-2 1.718-2 3.375S10.738 8 12 8" ></path>
        <path d="M9 14a3 3 0 1 1-6 0m12 0a3 3 0 1 1-6 0m12 0a3 3 0 1 1-6 0" ></path>
    </g>
</symbol>
<symbol viewBox="0 0 24 24" id="GoogleMaterial/archive">
    <path fill="currentColor"
        d="m20.54 5.23l-1.39-1.68C18.88 3.21 18.47 3 18 3H6c-.47 0-.88.21-1.16.55L3.46 5.23C3.17 5.57 3 6.02 3 6.5V19c0 1.1.9 2 2 2h14c1.1 0 2-.9 2-2V6.5c0-.48-.17-.93-.46-1.27M6.24 5h11.52l.81.97H5.44zM5 19V8h14v11zm8.45-9h-2.9v3H8l4 4l4-4h-2.55z" ></path>
</symbol>
</defs>
</svg>